solid OpenSCAD_Model
  facet normal 1 -0 0
    outer loop
      vertex 84 0 1.5
      vertex 84 39 0
      vertex 84 39 1.5
    endloop
  endfacet
  facet normal 1 0 0
    outer loop
      vertex 84 39 0
      vertex 84 0 1.5
      vertex 84 0 0
    endloop
  endfacet
  facet normal 0 0 1
    outer loop
      vertex 81.8 2.2 1.5
      vertex 84 39 1.5
      vertex 81.8 37.2 1.5
    endloop
  endfacet
  facet normal 0 0 1
    outer loop
      vertex 84 39 1.5
      vertex 2.2 37.2 1.5
      vertex 81.8 37.2 1.5
    endloop
  endfacet
  facet normal 0 0 1
    outer loop
      vertex 2.2 37.2 1.5
      vertex 0 39 1.5
      vertex 2.2 2.2 1.5
    endloop
  endfacet
  facet normal -0 0 1
    outer loop
      vertex 0 39 1.5
      vertex 2.2 37.2 1.5
      vertex 84 39 1.5
    endloop
  endfacet
  facet normal 0 0 1
    outer loop
      vertex 84 39 1.5
      vertex 81.8 2.2 1.5
      vertex 84 0 1.5
    endloop
  endfacet
  facet normal -0 0 1
    outer loop
      vertex 2.2 2.2 1.5
      vertex 84 0 1.5
      vertex 81.8 2.2 1.5
    endloop
  endfacet
  facet normal 0 0 1
    outer loop
      vertex 2.2 2.2 1.5
      vertex 0 0 1.5
      vertex 84 0 1.5
    endloop
  endfacet
  facet normal 0 0 1
    outer loop
      vertex 0 0 1.5
      vertex 2.2 2.2 1.5
      vertex 0 39 1.5
    endloop
  endfacet
  facet normal 0 0 -1
    outer loop
      vertex 84 0 0
      vertex 52 15 0
      vertex 84 39 0
    endloop
  endfacet
  facet normal 0 0 -1
    outer loop
      vertex 84 0 0
      vertex 32 15 0
      vertex 52 15 0
    endloop
  endfacet
  facet normal 0 0 -1
    outer loop
      vertex 0 39 0
      vertex 32 15 0
      vertex 0 0 0
    endloop
  endfacet
  facet normal 0 0 -1
    outer loop
      vertex 0 0 0
      vertex 32 15 0
      vertex 84 0 0
    endloop
  endfacet
  facet normal 0 0 -1
    outer loop
      vertex 52 30 0
      vertex 84 39 0
      vertex 52 15 0
    endloop
  endfacet
  facet normal 0 0 -1
    outer loop
      vertex 32 30 0
      vertex 84 39 0
      vertex 52 30 0
    endloop
  endfacet
  facet normal 0 0 -1
    outer loop
      vertex 32 30 0
      vertex 0 39 0
      vertex 84 39 0
    endloop
  endfacet
  facet normal 0 0 -1
    outer loop
      vertex 32 15 0
      vertex 0 39 0
      vertex 32 30 0
    endloop
  endfacet
  facet normal -1 0 0
    outer loop
      vertex 0 0 0
      vertex 0 39 1.5
      vertex 0 39 0
    endloop
  endfacet
  facet normal -1 -0 0
    outer loop
      vertex 0 39 1.5
      vertex 0 0 0
      vertex 0 0 1.5
    endloop
  endfacet
  facet normal 0 1 -0
    outer loop
      vertex 84 39 0
      vertex 0 39 1.5
      vertex 84 39 1.5
    endloop
  endfacet
  facet normal 0 1 0
    outer loop
      vertex 0 39 1.5
      vertex 84 39 0
      vertex 0 39 0
    endloop
  endfacet
  facet normal 0 -1 0
    outer loop
      vertex 0 0 0
      vertex 84 0 1.5
      vertex 0 0 1.5
    endloop
  endfacet
  facet normal 0 -1 -0
    outer loop
      vertex 84 0 1.5
      vertex 0 0 0
      vertex 84 0 0
    endloop
  endfacet
  facet normal 1 -0 0
    outer loop
      vertex 81.8 2.2 2.25
      vertex 81.8 37.2 1.5
      vertex 81.8 37.2 2.25
    endloop
  endfacet
  facet normal 1 0 0
    outer loop
      vertex 81.8 37.2 1.5
      vertex 81.8 2.2 2.25
      vertex 81.8 2.2 1.5
    endloop
  endfacet
  facet normal -0 0 1
    outer loop
      vertex 32 15 2.25
      vertex 52 3.7 2.25
      vertex 52 15 2.25
    endloop
  endfacet
  facet normal 0 0 1
    outer loop
      vertex 52 3.7 2.25
      vertex 32 15 2.25
      vertex 32 3.7 2.25
    endloop
  endfacet
  facet normal -0 0 1
    outer loop
      vertex 32 35 2.25
      vertex 52 30 2.25
      vertex 52 35 2.25
    endloop
  endfacet
  facet normal 0 0 1
    outer loop
      vertex 52 30 2.25
      vertex 32 35 2.25
      vertex 32 30 2.25
    endloop
  endfacet
  facet normal 0 0 1
    outer loop
      vertex 52 35 2.25
      vertex 81.8 37.2 2.25
      vertex 52 36.5 2.25
    endloop
  endfacet
  facet normal 0 0 1
    outer loop
      vertex 81.8 37.2 2.25
      vertex 32 36.5 2.25
      vertex 52 36.5 2.25
    endloop
  endfacet
  facet normal 0 0 1
    outer loop
      vertex 2.2 37.2 2.25
      vertex 32 35 2.25
      vertex 32 36.5 2.25
    endloop
  endfacet
  facet normal 0 0 1
    outer loop
      vertex 32 35 2.25
      vertex 2.2 37.2 2.25
      vertex 32 30 2.25
    endloop
  endfacet
  facet normal 0 0 1
    outer loop
      vertex 32 30 2.25
      vertex 2.2 37.2 2.25
      vertex 32 15 2.25
    endloop
  endfacet
  facet normal 0 0 1
    outer loop
      vertex 2.2 2.2 2.25
      vertex 32 15 2.25
      vertex 2.2 37.2 2.25
    endloop
  endfacet
  facet normal -0 0 1
    outer loop
      vertex 2.2 37.2 2.25
      vertex 32 36.5 2.25
      vertex 81.8 37.2 2.25
    endloop
  endfacet
  facet normal 0 0 1
    outer loop
      vertex 32 15 2.25
      vertex 2.2 2.2 2.25
      vertex 32 3.7 2.25
    endloop
  endfacet
  facet normal 0 0 1
    outer loop
      vertex 32 3.7 2.25
      vertex 2.2 2.2 2.25
      vertex 32 2.2 2.25
    endloop
  endfacet
  facet normal 0 0 1
    outer loop
      vertex 52 30 2.25
      vertex 81.8 37.2 2.25
      vertex 52 35 2.25
    endloop
  endfacet
  facet normal 0 0 1
    outer loop
      vertex 52 15 2.25
      vertex 81.8 37.2 2.25
      vertex 52 30 2.25
    endloop
  endfacet
  facet normal 0 0 1
    outer loop
      vertex 81.8 37.2 2.25
      vertex 52 15 2.25
      vertex 81.8 2.2 2.25
    endloop
  endfacet
  facet normal -0 0 1
    outer loop
      vertex 52 3.7 2.25
      vertex 81.8 2.2 2.25
      vertex 52 15 2.25
    endloop
  endfacet
  facet normal 0 0 1
    outer loop
      vertex 81.8 2.2 2.25
      vertex 52 3.7 2.25
      vertex 52 2.2 2.25
    endloop
  endfacet
  facet normal -1 0 0
    outer loop
      vertex 2.2 2.2 1.5
      vertex 2.2 37.2 2.25
      vertex 2.2 37.2 1.5
    endloop
  endfacet
  facet normal -1 -0 0
    outer loop
      vertex 2.2 37.2 2.25
      vertex 2.2 2.2 1.5
      vertex 2.2 2.2 2.25
    endloop
  endfacet
  facet normal 0 1 -0
    outer loop
      vertex 81.8 37.2 1.5
      vertex 2.2 37.2 2.25
      vertex 81.8 37.2 2.25
    endloop
  endfacet
  facet normal 0 1 0
    outer loop
      vertex 2.2 37.2 2.25
      vertex 81.8 37.2 1.5
      vertex 2.2 37.2 1.5
    endloop
  endfacet
  facet normal 0 -1 0
    outer loop
      vertex 2.2 2.2 1.5
      vertex 32 2.2 2.25
      vertex 2.2 2.2 2.25
    endloop
  endfacet
  facet normal 0 -1 -0
    outer loop
      vertex 32 2.2 2.25
      vertex 2.2 2.2 1.5
      vertex 52 2.2 2.25
    endloop
  endfacet
  facet normal 0 -1 0
    outer loop
      vertex 81.8 2.2 1.5
      vertex 52 2.2 2.25
      vertex 2.2 2.2 1.5
    endloop
  endfacet
  facet normal 0 -1 0
    outer loop
      vertex 52 2.2 2.25
      vertex 81.8 2.2 1.5
      vertex 81.8 2.2 2.25
    endloop
  endfacet
  facet normal 0 -1 0
    outer loop
      vertex 32 2.2 5.25
      vertex 34.5 2.2 4.92132
      vertex 52 2.2 5.25
    endloop
  endfacet
  facet normal 0 -1 0
    outer loop
      vertex 32 2.2 5.25
      vertex 34.5 2.2 2.8
      vertex 34.5 2.2 4.92132
    endloop
  endfacet
  facet normal 0 -1 -0
    outer loop
      vertex 34.5 2.2 2.8
      vertex 32 2.2 2.25
      vertex 49.5 2.2 2.8
    endloop
  endfacet
  facet normal 0 -1 0
    outer loop
      vertex 32 2.2 2.25
      vertex 34.5 2.2 2.8
      vertex 32 2.2 5.25
    endloop
  endfacet
  facet normal 0 -1 0
    outer loop
      vertex 49.5 2.2 4.92132
      vertex 52 2.2 5.25
      vertex 34.5 2.2 4.92132
    endloop
  endfacet
  facet normal 0 -1 0
    outer loop
      vertex 49.5 2.2 2.8
      vertex 52 2.2 5.25
      vertex 49.5 2.2 4.92132
    endloop
  endfacet
  facet normal 0 -1 0
    outer loop
      vertex 49.5 2.2 2.8
      vertex 52 2.2 2.25
      vertex 52 2.2 5.25
    endloop
  endfacet
  facet normal 0 -1 0
    outer loop
      vertex 52 2.2 2.25
      vertex 49.5 2.2 2.8
      vertex 32 2.2 2.25
    endloop
  endfacet
  facet normal 1 -0 0
    outer loop
      vertex 52 2.2 5.25
      vertex 52 3.7 2.25
      vertex 52 3.7 5.25
    endloop
  endfacet
  facet normal 1 0 0
    outer loop
      vertex 52 3.7 2.25
      vertex 52 2.2 5.25
      vertex 52 2.2 2.25
    endloop
  endfacet
  facet normal -0 0 1
    outer loop
      vertex 32 3.7 5.25
      vertex 52 2.2 5.25
      vertex 52 3.7 5.25
    endloop
  endfacet
  facet normal 0 0 1
    outer loop
      vertex 52 2.2 5.25
      vertex 32 3.7 5.25
      vertex 32 2.2 5.25
    endloop
  endfacet
  facet normal -1 0 0
    outer loop
      vertex 32 2.2 2.25
      vertex 32 3.7 5.25
      vertex 32 3.7 2.25
    endloop
  endfacet
  facet normal -1 -0 0
    outer loop
      vertex 32 3.7 5.25
      vertex 32 2.2 2.25
      vertex 32 2.2 5.25
    endloop
  endfacet
  facet normal 0 1 -0
    outer loop
      vertex 52 3.7 2.25
      vertex 32 3.7 5.25
      vertex 52 3.7 5.25
    endloop
  endfacet
  facet normal 0 1 0
    outer loop
      vertex 32 3.7 5.25
      vertex 52 3.7 2.25
      vertex 32 3.7 2.25
    endloop
  endfacet
  facet normal -1 0 0
    outer loop
      vertex 34.5 2.2 2.8
      vertex 34.5 1.13934 3.86066
      vertex 34.5 2.2 4.92132
    endloop
  endfacet
  facet normal 0 -0.707107 0.707107
    outer loop
      vertex 34.5 1.13934 3.86066
      vertex 49.5 2.2 4.92132
      vertex 34.5 2.2 4.92132
    endloop
  endfacet
  facet normal 0 -0.707107 0.707107
    outer loop
      vertex 49.5 2.2 4.92132
      vertex 34.5 1.13934 3.86066
      vertex 49.5 1.13934 3.86066
    endloop
  endfacet
  facet normal 0 -0.707107 -0.707107
    outer loop
      vertex 34.5 2.2 2.8
      vertex 49.5 1.13934 3.86066
      vertex 34.5 1.13934 3.86066
    endloop
  endfacet
  facet normal 0 -0.707107 -0.707107
    outer loop
      vertex 49.5 1.13934 3.86066
      vertex 34.5 2.2 2.8
      vertex 49.5 2.2 2.8
    endloop
  endfacet
  facet normal 1 0 0
    outer loop
      vertex 49.5 2.2 4.92132
      vertex 49.5 1.13934 3.86066
      vertex 49.5 2.2 2.8
    endloop
  endfacet
  facet normal 1 -0 0
    outer loop
      vertex 52 35 5.25
      vertex 52 36.5 2.25
      vertex 52 36.5 5.25
    endloop
  endfacet
  facet normal 1 0 0
    outer loop
      vertex 52 36.5 2.25
      vertex 52 35 5.25
      vertex 52 35 2.25
    endloop
  endfacet
  facet normal -0 0 1
    outer loop
      vertex 32 36.5 5.25
      vertex 52 35 5.25
      vertex 52 36.5 5.25
    endloop
  endfacet
  facet normal 0 0 1
    outer loop
      vertex 52 35 5.25
      vertex 32 36.5 5.25
      vertex 32 35 5.25
    endloop
  endfacet
  facet normal -1 0 0
    outer loop
      vertex 32 35 2.25
      vertex 32 36.5 5.25
      vertex 32 36.5 2.25
    endloop
  endfacet
  facet normal -1 -0 0
    outer loop
      vertex 32 36.5 5.25
      vertex 32 35 2.25
      vertex 32 35 5.25
    endloop
  endfacet
  facet normal 0 1 0
    outer loop
      vertex 52 36.5 5.25
      vertex 49.5 36.5 4.82132
      vertex 32 36.5 5.25
    endloop
  endfacet
  facet normal 0 1 0
    outer loop
      vertex 52 36.5 5.25
      vertex 49.5 36.5 2.9
      vertex 49.5 36.5 4.82132
    endloop
  endfacet
  facet normal 0 1 0
    outer loop
      vertex 49.5 36.5 2.9
      vertex 52 36.5 2.25
      vertex 34.5 36.5 2.9
    endloop
  endfacet
  facet normal 0 1 -0
    outer loop
      vertex 52 36.5 2.25
      vertex 49.5 36.5 2.9
      vertex 52 36.5 5.25
    endloop
  endfacet
  facet normal 0 1 -0
    outer loop
      vertex 34.5 36.5 4.82132
      vertex 32 36.5 5.25
      vertex 49.5 36.5 4.82132
    endloop
  endfacet
  facet normal 0 1 -0
    outer loop
      vertex 34.5 36.5 2.9
      vertex 32 36.5 5.25
      vertex 34.5 36.5 4.82132
    endloop
  endfacet
  facet normal 0 1 0
    outer loop
      vertex 34.5 36.5 2.9
      vertex 32 36.5 2.25
      vertex 32 36.5 5.25
    endloop
  endfacet
  facet normal 0 1 0
    outer loop
      vertex 32 36.5 2.25
      vertex 34.5 36.5 2.9
      vertex 52 36.5 2.25
    endloop
  endfacet
  facet normal 0 -1 0
    outer loop
      vertex 32 35 2.25
      vertex 52 35 5.25
      vertex 32 35 5.25
    endloop
  endfacet
  facet normal 0 -1 -0
    outer loop
      vertex 52 35 5.25
      vertex 32 35 2.25
      vertex 52 35 2.25
    endloop
  endfacet
  facet normal -1 0 0
    outer loop
      vertex 34.5 36.5 2.9
      vertex 34.5 37.6607 3.86066
      vertex 34.5 36.6 2.8
    endloop
  endfacet
  facet normal -1 0 0
    outer loop
      vertex 34.5 36.5 4.82132
      vertex 34.5 37.6607 3.86066
      vertex 34.5 36.5 2.9
    endloop
  endfacet
  facet normal -1 0 0
    outer loop
      vertex 34.5 37.6607 3.86066
      vertex 34.5 36.5 4.82132
      vertex 34.5 36.6 4.92132
    endloop
  endfacet
  facet normal 1 -0 0
    outer loop
      vertex 49.5 36.5 4.82132
      vertex 49.5 37.6607 3.86066
      vertex 49.5 36.6 4.92132
    endloop
  endfacet
  facet normal 1 0 0
    outer loop
      vertex 49.5 36.5 2.9
      vertex 49.5 37.6607 3.86066
      vertex 49.5 36.5 4.82132
    endloop
  endfacet
  facet normal 1 0 0
    outer loop
      vertex 49.5 37.6607 3.86066
      vertex 49.5 36.5 2.9
      vertex 49.5 36.6 2.8
    endloop
  endfacet
  facet normal 0 -0.707107 0.707107
    outer loop
      vertex 34.5 36.5 4.82132
      vertex 49.5 36.6 4.92132
      vertex 34.5 36.6 4.92132
    endloop
  endfacet
  facet normal 0 -0.707107 0.707107
    outer loop
      vertex 49.5 36.6 4.92132
      vertex 34.5 36.5 4.82132
      vertex 49.5 36.5 4.82132
    endloop
  endfacet
  facet normal 0 0.707093 -0.70712
    outer loop
      vertex 34.5 36.6 2.8
      vertex 49.5 37.6607 3.86066
      vertex 49.5 36.6 2.8
    endloop
  endfacet
  facet normal 0 0.707093 -0.70712
    outer loop
      vertex 49.5 37.6607 3.86066
      vertex 34.5 36.6 2.8
      vertex 34.5 37.6607 3.86066
    endloop
  endfacet
  facet normal -0 0.707093 0.70712
    outer loop
      vertex 34.5 37.6607 3.86066
      vertex 49.5 36.6 4.92132
      vertex 49.5 37.6607 3.86066
    endloop
  endfacet
  facet normal 0 0.707093 0.70712
    outer loop
      vertex 49.5 36.6 4.92132
      vertex 34.5 37.6607 3.86066
      vertex 34.5 36.6 4.92132
    endloop
  endfacet
  facet normal 0 -0.707107 -0.707107
    outer loop
      vertex 34.5 36.6 2.8
      vertex 49.5 36.5 2.9
      vertex 34.5 36.5 2.9
    endloop
  endfacet
  facet normal 0 -0.707107 -0.707107
    outer loop
      vertex 49.5 36.5 2.9
      vertex 34.5 36.6 2.8
      vertex 49.5 36.6 2.8
    endloop
  endfacet
  facet normal -1 0 0
    outer loop
      vertex 52 15 0
      vertex 52 30 2.25
      vertex 52 30 0
    endloop
  endfacet
  facet normal -1 -0 0
    outer loop
      vertex 52 30 2.25
      vertex 52 15 0
      vertex 52 15 2.25
    endloop
  endfacet
  facet normal 1 -0 0
    outer loop
      vertex 32 15 2.25
      vertex 32 30 0
      vertex 32 30 2.25
    endloop
  endfacet
  facet normal 1 0 0
    outer loop
      vertex 32 30 0
      vertex 32 15 2.25
      vertex 32 15 0
    endloop
  endfacet
  facet normal 0 -1 0
    outer loop
      vertex 32 30 0
      vertex 52 30 2.25
      vertex 32 30 2.25
    endloop
  endfacet
  facet normal 0 -1 -0
    outer loop
      vertex 52 30 2.25
      vertex 32 30 0
      vertex 52 30 0
    endloop
  endfacet
  facet normal 0 1 -0
    outer loop
      vertex 52 15 0
      vertex 32 15 2.25
      vertex 52 15 2.25
    endloop
  endfacet
  facet normal 0 1 0
    outer loop
      vertex 32 15 2.25
      vertex 52 15 0
      vertex 32 15 0
    endloop
  endfacet
endsolid OpenSCAD_Model
